<?xml version="1.0" standalone="no"?>
<!DOCTYPE svg PUBLIC "-//W3C//DTD SVG 20010904//EN"
 "http://www.w3.org/TR/2001/REC-SVG-20010904/DTD/svg10.dtd">
<svg version="1.0" xmlns="http://www.w3.org/2000/svg"
 width="512.000000pt" height="512.000000pt" viewBox="0 0 512.000000 512.000000"
 preserveAspectRatio="xMidYMid meet">

<g transform="translate(0.000000,512.000000) scale(0.100000,-0.100000)"
fill="#000000" stroke="none">
<path d="M2330 4835 c-689 -103 -1248 -677 -1350 -1385 -6 -41 -15 -167 -20
-280 -16 -365 -28 -400 -269 -773 -126 -196 -156 -254 -181 -353 -28 -110 -35
-198 -21 -295 15 -107 34 -165 82 -259 74 -143 185 -253 324 -319 71 -35 249
-87 426 -126 l126 -28 33 -72 c100 -229 303 -434 545 -551 346 -168 724 -168
1070 0 244 118 444 321 545 550 l32 72 142 33 c362 84 476 133 594 251 234
234 296 577 159 873 -13 28 -75 131 -138 227 -62 96 -128 203 -147 238 -71
132 -105 308 -132 687 -25 357 -140 655 -361 930 -257 321 -629 532 -1032 585
-104 13 -321 11 -427 -5z m410 -316 c359 -50 697 -278 897 -604 131 -214 203
-469 203 -720 0 -106 27 -314 55 -423 45 -177 87 -267 236 -498 150 -234 178
-293 186 -394 14 -169 -81 -345 -225 -419 -126 -64 -656 -172 -1047 -213 -160
-17 -810 -17 -970 0 -407 42 -933 151 -1057 219 -57 31 -137 113 -166 169 -58
113 -66 250 -23 365 12 31 80 148 152 260 168 263 192 305 228 414 42 127 60
248 71 485 11 236 19 301 55 423 75 260 241 510 445 671 144 114 255 173 425
224 185 57 339 68 535 41z m-716 -3586 c223 -25 846 -25 1079 1 93 10 170 16
172 14 9 -8 -92 -114 -163 -170 -85 -68 -204 -127 -317 -160 -68 -20 -103 -23
-235 -23 -131 0 -167 4 -233 23 -186 53 -353 160 -458 293 -37 47 -48 45 155
22z"/>
</g>
</svg>
